<mxGraphModel dx="0" dy="0" grid="1" gridSize="10" guides="1" tooltips="1" connect="1" arrows="1" fold="1" page="0" pageScale="1" background="none" math="0" shadow="0">
  <root>
    <mxCell id="0" />
    <mxCell id="1" parent="0" />
    <mxCell id="node0" parent="1" vertex="1" value="&lt;p style=&quot;margin:0px;margin-top:4px;text-align:center;&quot;&gt;&lt;b&gt;ReportController&lt;/b&gt;&lt;/p&gt;&lt;hr size=&quot;1&quot;/&gt;&lt;p style=&quot;margin:0 0 0 4px;line-height:1.6;&quot;&gt;+ ReportController(ReportServiceImpl): &lt;/p&gt;&lt;hr size=&quot;1&quot;/&gt;&lt;p style=&quot;margin:0 0 0 4px;line-height:1.6;&quot;&gt;+ getTopActionsByUser(String): ResponseEntity&amp;lt;List&amp;lt;ReportResponseDTO&amp;gt;&amp;gt;&lt;/p&gt;&lt;hr size=&quot;1&quot;/&gt;&lt;p style=&quot;margin:0 0 0 4px;line-height:1.6;&quot;&gt; avgActionsPerUser: ResponseEntity&amp;lt;ReportResponseDTO&amp;gt;&lt;br/&gt; weeklyActiveUsers: ResponseEntity&amp;lt;List&amp;lt;ReportResponseDTO&amp;gt;&amp;gt;&lt;br/&gt; actionsLeadingToCancellations: ResponseEntity&amp;lt;List&amp;lt;ReportResponseDTO&amp;gt;&amp;gt;&lt;br/&gt; peakActivityHours: ResponseEntity&amp;lt;List&amp;lt;ReportResponseDTO&amp;gt;&amp;gt;&lt;br/&gt; avgTimeBetweenActionsPerUser: ResponseEntity&amp;lt;List&amp;lt;ReportResponseDTO&amp;gt;&amp;gt;&lt;br/&gt; bookingsMadeEachDay: ResponseEntity&amp;lt;List&amp;lt;ReportResponseDTO&amp;gt;&amp;gt;&lt;br/&gt; mostFrequentActionSequences: ResponseEntity&amp;lt;List&amp;lt;ReportResponseDTO&amp;gt;&amp;gt;&lt;br/&gt; actionsGroupedByType: ResponseEntity&amp;lt;List&amp;lt;ReportResponseDTO&amp;gt;&amp;gt;&lt;br/&gt; mostActiveDaysOfWeek: ResponseEntity&amp;lt;List&amp;lt;ReportResponseDTO&amp;gt;&amp;gt;&lt;br/&gt; loginAttemptsLastWeek: ResponseEntity&amp;lt;List&amp;lt;ReportResponseDTO&amp;gt;&amp;gt;&lt;br/&gt; mostActiveUsers: ResponseEntity&amp;lt;List&amp;lt;ReportResponseDTO&amp;gt;&amp;gt;&lt;br/&gt; timeToFirstActionAfterSignup: ResponseEntity&amp;lt;List&amp;lt;ReportResponseDTO&amp;gt;&amp;gt;&lt;br/&gt; dailyActiveUsers: ResponseEntity&amp;lt;List&amp;lt;ReportResponseDTO&amp;gt;&amp;gt;&lt;br/&gt; usersWithMoreThanTenActions: ResponseEntity&amp;lt;List&amp;lt;ReportResponseDTO&amp;gt;&amp;gt;&lt;br/&gt; userActionsLastMonth: ResponseEntity&amp;lt;List&amp;lt;ReportResponseDTO&amp;gt;&amp;gt;&lt;br/&gt; totalActions: ResponseEntity&amp;lt;ReportResponseDTO&amp;gt;&lt;br/&gt; correlationBetweenActionsAndRatings: ResponseEntity&amp;lt;List&amp;lt;ReportResponseDTO&amp;gt;&amp;gt;&lt;br/&gt; userActionsOverTime: ResponseEntity&amp;lt;List&amp;lt;ReportResponseDTO&amp;gt;&amp;gt;&lt;br/&gt; actionsLeadingToHighRatings: ResponseEntity&amp;lt;List&amp;lt;ReportResponseDTO&amp;gt;&amp;gt;&lt;br/&gt; distributionOfActionsPastMonth: ResponseEntity&amp;lt;List&amp;lt;ReportResponseDTO&amp;gt;&amp;gt;&lt;br/&gt; userRetentionRate: ResponseEntity&amp;lt;ReportResponseDTO&amp;gt;&lt;br/&gt; actionTypesByUser: ResponseEntity&amp;lt;List&amp;lt;ReportResponseDTO&amp;gt;&amp;gt;&lt;br/&gt; hourlyBookingTrends: ResponseEntity&amp;lt;List&amp;lt;ReportResponseDTO&amp;gt;&amp;gt;&lt;br/&gt; monthlyActiveUsers: ResponseEntity&amp;lt;List&amp;lt;ReportResponseDTO&amp;gt;&amp;gt;&lt;/p&gt;" style="verticalAlign=top;align=left;overflow=fill;fontSize=14;fontFamily=Helvetica;html=1;rounded=0;shadow=0;comic=0;labelBackgroundColor=none;strokeWidth=1;">
      <mxGeometry x="281" y="-149" width="580" height="665" as="geometry" />
    </mxCell>
  </root>
</mxGraphModel>